<?xml version="1.0"?>
<svg xmlns="http://www.w3.org/2000/svg" xmlns:xlink="http://www.w3.org/1999/xlink" xmlns:svgjs="http://svgjs.com/svgjs" version="1.1" width="512" height="512" x="0" y="0" viewBox="0 0 512 512" style="enable-background:new 0 0 512 512" xml:space="preserve"><g><path xmlns="http://www.w3.org/2000/svg" d="m111.71875 216.421875c-26.242188 0-47.59375 21.351563-47.59375 47.59375s21.351562 47.59375 47.59375 47.59375 47.59375-21.351563 47.59375-47.59375-21.351562-47.59375-47.59375-47.59375zm0 80.15625c-17.957031 0-32.5625-14.605469-32.5625-32.5625 0-17.953125 14.605469-32.5625 32.5625-32.5625 17.953125 0 32.5625 14.609375 32.5625 32.5625 0 17.957031-14.609375 32.5625-32.5625 32.5625zm0 0" fill="#137150" data-original="#000000" style=""/><path xmlns="http://www.w3.org/2000/svg" d="m111.71875 240.46875c-12.984375 0-23.546875 10.5625-23.546875 23.546875s10.5625 23.546875 23.546875 23.546875 23.546875-10.5625 23.546875-23.546875-10.5625-23.546875-23.546875-23.546875zm0 32.0625c-4.695312 0-8.515625-3.820312-8.515625-8.515625s3.820313-8.515625 8.515625-8.515625 8.515625 3.820312 8.515625 8.515625-3.820313 8.515625-8.515625 8.515625zm0 0" fill="#137150" data-original="#000000" style=""/><path xmlns="http://www.w3.org/2000/svg" d="m280.046875 216.421875h-96.1875c-4.148437 0-7.515625 3.367187-7.515625 7.515625v32.0625c0 4.148438 3.367188 7.515625 7.515625 7.515625h96.1875c4.148437 0 7.515625-3.367187 7.515625-7.515625v-32.0625c0-4.148438-3.367188-7.515625-7.515625-7.515625zm-7.515625 32.0625h-81.15625v-17.03125h81.15625zm0 0" fill="#137150" data-original="#000000" style=""/><path xmlns="http://www.w3.org/2000/svg" d="m199.890625 280.546875h-16.03125c-4.148437 0-7.515625 3.367187-7.515625 7.515625s3.367188 7.515625 7.515625 7.515625h16.03125c4.148437 0 7.515625-3.367187 7.515625-7.515625s-3.367188-7.515625-7.515625-7.515625zm0 0" fill="#137150" data-original="#000000" style=""/><path xmlns="http://www.w3.org/2000/svg" d="m239.96875 280.546875h-16.03125c-4.148438 0-7.515625 3.367187-7.515625 7.515625s3.367187 7.515625 7.515625 7.515625h16.03125c4.148438 0 7.515625-3.367187 7.515625-7.515625s-3.367187-7.515625-7.515625-7.515625zm0 0" fill="#137150" data-original="#000000" style=""/><path xmlns="http://www.w3.org/2000/svg" d="m280.046875 280.546875h-16.03125c-4.148437 0-7.515625 3.367187-7.515625 7.515625s3.367188 7.515625 7.515625 7.515625h16.03125c4.148437 0 7.515625-3.367187 7.515625-7.515625s-3.367188-7.515625-7.515625-7.515625zm0 0" fill="#137150" data-original="#000000" style=""/><path xmlns="http://www.w3.org/2000/svg" d="m199.890625 304.59375h-16.03125c-4.148437 0-7.515625 3.367188-7.515625 7.515625s3.367188 7.515625 7.515625 7.515625h16.03125c4.148437 0 7.515625-3.367188 7.515625-7.515625s-3.367188-7.515625-7.515625-7.515625zm0 0" fill="#137150" data-original="#000000" style=""/><path xmlns="http://www.w3.org/2000/svg" d="m239.96875 304.59375h-16.03125c-4.148438 0-7.515625 3.367188-7.515625 7.515625s3.367187 7.515625 7.515625 7.515625h16.03125c4.148438 0 7.515625-3.367188 7.515625-7.515625s-3.367187-7.515625-7.515625-7.515625zm0 0" fill="#137150" data-original="#000000" style=""/><path xmlns="http://www.w3.org/2000/svg" d="m280.046875 304.59375h-16.03125c-4.148437 0-7.515625 3.367188-7.515625 7.515625s3.367188 7.515625 7.515625 7.515625h16.03125c4.148437 0 7.515625-3.367188 7.515625-7.515625s-3.367188-7.515625-7.515625-7.515625zm0 0" fill="#137150" data-original="#000000" style=""/><path xmlns="http://www.w3.org/2000/svg" d="m424.328125 0c-45.808594 0-83.519531 35.320312-87.34375 80.15625h-329.46875c-4.152344 0-7.515625 3.363281-7.515625 7.515625v368.71875c0 4.152344 3.363281 7.515625 7.515625 7.515625h496.96875c4.152344 0 7.515625-3.363281 7.515625-7.515625v-368.71875c0-48.34375-39.328125-87.671875-87.671875-87.671875zm0 15.03125c40.054687 0 72.640625 32.585938 72.640625 72.640625s-32.585938 72.640625-72.640625 72.640625-72.640625-32.585938-72.640625-72.640625 32.585938-72.640625 72.640625-72.640625zm-409.296875 433.84375v-353.6875h321.953125c.5 5.859375 1.574219 11.554688 3.175781 17.03125h-300.582031c-4.152344 0-7.515625 3.363281-7.515625 7.515625v304.59375c0 4.152344 3.363281 7.515625 7.515625 7.515625h341.164063c4.152343 0 7.515624-3.363281 7.515624-7.515625 0-4.148437-3.363281-7.515625-7.515624-7.515625h-333.648438v-73.140625h273.03125c4.148438 0 7.515625-3.363281 7.515625-7.515625v-144.28125c0-4.148438-3.367187-7.515625-7.515625-7.515625h-273.03125v-57.109375h299.019531c14.484375 28.511719 44.105469 48.09375 78.214844 48.09375 14.632813 0 28.4375-3.609375 40.578125-9.976562v18.992187h-32.5625c-4.148438 0-7.515625 3.367187-7.515625 7.515625v32.0625c0 4.148438 3.367187 7.515625 7.515625 7.515625h32.5625v65.125h-32.5625c-4.148438 0-7.515625 3.367187-7.515625 7.515625v32.0625c0 4.152344 3.367187 7.515625 7.515625 7.515625h32.5625v73.140625h-47.589844c-4.152344 0-7.515625 3.367188-7.515625 7.515625 0 4.152344 3.363281 7.515625 7.515625 7.515625h55.105469c4.152344 0 7.515625-3.363281 7.515625-7.515625v-80.65625h17.03125v105.203125zm32.0625-249.484375h265.515625v129.25h-265.515625zm449.875 97.1875h-17.03125v-65.125h17.03125zm0 32.0625h-57.109375v-17.03125h57.109375zm0-112.21875h-57.109375v-17.03125h57.109375zm0-32.0625h-17.03125v-28.960937c6.53125-5.371094 12.277344-11.667969 17.03125-18.691407zm0 0" fill="#137150" data-original="#000000" style=""/><path xmlns="http://www.w3.org/2000/svg" d="m452.136719 87.597656c-17.152344-9.917968-38.460938-9.917968-55.617188-.003906-3.59375 2.078125-4.824219 6.675781-2.746093 10.269531 2.078124 3.59375 6.671874 4.820313 10.265624 2.746094 12.515626-7.234375 28.0625-7.230469 40.578126 0 3.546874 2.050781 8.214843.796875 10.265624-2.746094 2.078126-3.59375.847657-8.191406-2.746093-10.265625zm0 0" fill="#137150" data-original="#000000" style=""/><path xmlns="http://www.w3.org/2000/svg" d="m385.050781 74.636719c23.859375-15.367188 54.695313-15.367188 78.554688 0 3.445312 2.21875 8.171875 1.195312 10.386719-2.246094 2.246093-3.488281 1.238281-8.140625-2.25-10.386719-28.800782-18.554687-66.027344-18.554687-94.828126 0-3.492187 2.246094-4.496093 6.898438-2.25 10.386719 2.246094 3.488281 6.894532 4.492187 10.386719 2.246094zm0 0" fill="#137150" data-original="#000000" style=""/><path xmlns="http://www.w3.org/2000/svg" d="m424.328125 112.21875c-6.289063 0-12.203125 2.449219-16.648437 6.898438-2.9375 2.933593-2.9375 7.691406 0 10.625 2.894531 2.894531 7.730468 2.894531 10.625 0 1.609374-1.609376 3.746093-2.496094 6.023437-2.496094 2.273437 0 4.414063.886718 6.019531 2.496094 2.9375 2.933593 7.695313 2.933593 10.628906 0 2.933594-2.933594 2.933594-7.691407 0-10.628907-4.445312-4.445312-10.359374-6.894531-16.648437-6.894531zm0 0" fill="#137150" data-original="#000000" style=""/></g></svg>
