<?xml version="1.0" encoding="utf-8"?>
<!-- Generator: Adobe Illustrator 16.0.0, SVG Export Plug-In . SVG Version: 6.00 Build 0)  -->
<!DOCTYPE svg PUBLIC "-//W3C//DTD SVG 1.1//EN" "http://www.w3.org/Graphics/SVG/1.1/DTD/svg11.dtd">
<svg version="1.1" id="Layer_1" xmlns="http://www.w3.org/2000/svg" xmlns:xlink="http://www.w3.org/1999/xlink" x="0px" y="0px"
	 width="26.5px" height="26.75px" viewBox="0 0 26.5 26.75" enable-background="new 0 0 26.5 26.75" xml:space="preserve">
<g>
	<path fill-rule="evenodd" clip-rule="evenodd" fill="#4FBA93" d="M13.515,3.083c5.821-0.012,10.54,4.706,10.53,10.526
		c-0.01,5.812-4.752,10.51-10.578,10.479c-5.723-0.031-10.394-4.7-10.426-10.422C3.008,7.838,7.703,3.094,13.515,3.083z"/>
	<path fill-rule="evenodd" clip-rule="evenodd" fill="#FBFDFC" d="M7.689,14.556c1.184-2.114,2.3-2.188,3.469-0.48
		c0.935,1.365,1.722,1.141,2.708-0.021c1.081-1.271,2.373-2.361,3.518-3.583c0.648-0.691,1.082-1.033,1.95-0.154
		c0.827,0.837,0.613,1.249-0.101,1.939c-1.955,1.892-3.891,3.809-5.729,5.812c-0.827,0.9-1.29,0.82-2.082-0.025
		C10.233,16.775,8.885,15.658,7.689,14.556z"/>
</g>
</svg>
